<svg xmlns="http://www.w3.org/2000/svg" xmlns:xlink="http://www.w3.org/1999/xlink" width="2000" zoomAndPan="magnify" viewBox="0 0 1500 749.999995" height="1000" preserveAspectRatio="xMidYMid meet" version="1.0"><defs><clipPath id="id1"><path d="M 152.574219 7.054688 L 1325.574219 7.054688 L 1325.574219 742.804688 L 152.574219 742.804688 Z M 152.574219 7.054688 " clip-rule="nonzero"/></clipPath></defs><g clip-path="url(#id1)"><path fill="#ff5757" d="M 179.128906 605.941406 C 204.871094 605.941406 213.054688 605.941406 213.054688 605.941406 L 228.617188 505.257812 L 228.617188 653.714844 C 228.617188 653.714844 226 679.457031 255.121094 679.457031 C 284.242188 679.457031 286.097656 679.457031 286.097656 679.457031 L 305.367188 545.511719 L 305.367188 685.6875 C 305.367188 685.6875 302.324219 742.691406 365.230469 742.691406 C 365.230469 742.691406 423.804688 745.214844 423.804688 687.542969 C 423.804688 663.421875 423.804688 588.8125 423.804688 510.160156 L 642.074219 510.160156 C 646.738281 535.425781 657.207031 556.121094 717.78125 564.070312 C 779.117188 572.109375 809 551.03125 819.753906 526.144531 C 821.800781 521.386719 824.324219 515.964844 827.082031 510.207031 L 1054.34375 510.207031 C 1054.34375 588.90625 1054.34375 663.515625 1054.34375 687.59375 C 1054.34375 745.214844 1112.921875 742.691406 1112.921875 742.691406 C 1175.875 742.691406 1172.78125 685.6875 1172.78125 685.6875 L 1172.78125 545.511719 L 1192.054688 679.457031 C 1192.054688 679.457031 1193.910156 679.457031 1223.03125 679.457031 C 1252.152344 679.457031 1249.535156 653.714844 1249.535156 653.714844 L 1249.535156 505.257812 L 1265.097656 605.941406 C 1265.097656 605.941406 1273.28125 605.941406 1299.023438 605.941406 C 1324.765625 605.941406 1325.574219 580.867188 1325.574219 580.867188 L 1325.574219 397.152344 C 1325.574219 369.980469 1300.453125 366.886719 1300.453125 366.886719 L 1249.347656 366.886719 C 1249.347656 366.886719 1250.15625 356.277344 1250.15625 325.0625 C 1250.15625 293.800781 1225.601562 294.847656 1225.601562 294.847656 L 1181.253906 294.847656 L 1172.496094 353.898438 C 1172.496094 353.898438 1172.496094 313.027344 1172.496094 282.289062 C 1172.496094 251.550781 1133.382812 229.519531 1114.492188 229.519531 C 1060.007812 229.472656 1054.34375 282.953125 1054.34375 282.953125 C 1054.34375 282.953125 1054.34375 365.554688 1054.34375 456.867188 L 855.441406 456.867188 C 858.820312 451.15625 861.820312 446.304688 864.246094 442.878906 C 875 427.554688 912.164062 373.121094 928.628906 346.667969 C 945.09375 320.210938 947.421875 304.128906 954.703125 281.527344 C 961.984375 258.925781 963.507812 246.648438 969.265625 222.097656 C 977.6875 183.363281 965.839844 170.753906 946.664062 153.101562 C 927.484375 135.449219 879.566406 111.707031 812.902344 75.304688 C 769.601562 47.328125 693.703125 37.382812 659.824219 50.039062 C 591.96875 82.488281 585.832031 26.722656 568.558594 8.832031 C 545.382812 -7.058594 497.703125 95.859375 501.605469 174.515625 C 501.605469 234.183594 536.058594 283.191406 569.890625 283.859375 C 603.675781 284.523438 642.789062 256.023438 642.789062 256.023438 C 648.59375 269.964844 676.050781 298.417969 707.882812 302.984375 C 739.71875 307.601562 773.40625 273.484375 773.40625 273.484375 C 773.40625 273.484375 777.261719 313.359375 778.402344 353.613281 C 779.546875 393.867188 774.976562 419.132812 764.222656 450.964844 C 762.320312 435.644531 733.960938 428.746094 700.605469 424.511719 C 667.246094 420.277344 661.109375 439.832031 650.023438 450.964844 C 648.308594 452.679688 646.882812 454.726562 645.644531 456.914062 L 423.902344 456.914062 C 423.902344 365.605469 423.902344 283 423.902344 283 C 423.902344 283 418.238281 229.519531 363.753906 229.519531 C 344.910156 229.519531 305.75 251.550781 305.75 282.289062 C 305.75 313.027344 305.75 353.898438 305.75 353.898438 L 296.992188 294.847656 L 252.644531 294.847656 C 252.644531 294.847656 228.09375 293.851562 228.09375 325.0625 C 228.09375 356.324219 228.902344 366.886719 228.902344 366.886719 L 177.796875 366.886719 C 177.796875 366.886719 152.671875 369.980469 152.671875 397.152344 L 152.671875 580.867188 C 152.574219 580.867188 153.382812 605.941406 179.128906 605.941406 Z M 179.128906 605.941406 " fill-opacity="1" fill-rule="nonzero"/></g></svg>