<svg xmlns="http://www.w3.org/2000/svg" xmlns:xlink="http://www.w3.org/1999/xlink" width="150" zoomAndPan="magnify" viewBox="0 0 112.5 74.999997" height="100" preserveAspectRatio="xMidYMid meet" version="1.0"><defs><clipPath id="id1"><path d="M 19.476562 2.539062 L 92.976562 2.539062 L 92.976562 48.289062 L 19.476562 48.289062 Z M 19.476562 2.539062 " clip-rule="nonzero"/></clipPath><clipPath id="id2"><path d="M 0 45 L 112.003906 45 L 112.003906 74 L 0 74 Z M 0 45 " clip-rule="nonzero"/></clipPath></defs><g clip-path="url(#id1)"><path fill="#ff5757" d="M 21.140625 39.78125 C 22.753906 39.78125 23.265625 39.78125 23.265625 39.78125 L 24.242188 33.519531 L 24.242188 42.75 C 24.242188 42.75 24.078125 44.351562 25.902344 44.351562 C 27.726562 44.351562 27.84375 44.351562 27.84375 44.351562 L 29.050781 36.023438 L 29.050781 44.742188 C 29.050781 44.742188 28.859375 48.285156 32.800781 48.285156 C 32.800781 48.285156 36.472656 48.441406 36.472656 44.855469 C 36.472656 43.355469 36.472656 38.714844 36.472656 33.824219 L 50.148438 33.824219 C 50.441406 35.394531 51.097656 36.683594 54.890625 37.175781 C 58.734375 37.675781 60.609375 36.367188 61.28125 34.816406 C 61.410156 34.523438 61.566406 34.183594 61.742188 33.828125 L 75.980469 33.828125 C 75.980469 38.722656 75.980469 43.363281 75.980469 44.859375 C 75.980469 48.441406 79.652344 48.285156 79.652344 48.285156 C 83.597656 48.285156 83.402344 44.742188 83.402344 44.742188 L 83.402344 36.023438 L 84.609375 44.351562 C 84.609375 44.351562 84.726562 44.351562 86.550781 44.351562 C 88.375 44.351562 88.210938 42.75 88.210938 42.75 L 88.210938 33.519531 L 89.1875 39.78125 C 89.1875 39.78125 89.699219 39.78125 91.3125 39.78125 C 92.925781 39.78125 92.976562 38.222656 92.976562 38.222656 L 92.976562 26.796875 C 92.976562 25.105469 91.402344 24.914062 91.402344 24.914062 L 88.199219 24.914062 C 88.199219 24.914062 88.25 24.253906 88.25 22.3125 C 88.25 20.367188 86.710938 20.433594 86.710938 20.433594 L 83.933594 20.433594 L 83.382812 24.105469 C 83.382812 24.105469 83.382812 21.5625 83.382812 19.652344 C 83.382812 17.742188 80.933594 16.371094 79.75 16.371094 C 76.335938 16.367188 75.980469 19.691406 75.980469 19.691406 C 75.980469 19.691406 75.980469 24.832031 75.980469 30.507812 L 63.519531 30.507812 C 63.730469 30.15625 63.917969 29.851562 64.070312 29.640625 C 64.742188 28.6875 67.070312 25.300781 68.105469 23.65625 C 69.136719 22.011719 69.28125 21.011719 69.738281 19.605469 C 70.195312 18.199219 70.289062 17.433594 70.648438 15.910156 C 71.179688 13.5 70.433594 12.714844 69.234375 11.617188 C 68.03125 10.519531 65.03125 9.042969 60.851562 6.777344 C 58.140625 5.039062 53.382812 4.421875 51.261719 5.207031 C 47.007812 7.226562 46.625 3.757812 45.542969 2.644531 C 44.089844 1.65625 41.101562 8.058594 41.347656 12.949219 C 41.347656 16.660156 43.503906 19.707031 45.625 19.75 C 47.742188 19.789062 50.191406 18.019531 50.191406 18.019531 C 50.558594 18.886719 52.277344 20.65625 54.273438 20.9375 C 56.265625 21.226562 58.378906 19.105469 58.378906 19.105469 C 58.378906 19.105469 58.621094 21.585938 58.691406 24.085938 C 58.761719 26.589844 58.476562 28.164062 57.800781 30.140625 C 57.683594 29.191406 55.90625 28.761719 53.816406 28.496094 C 51.726562 28.234375 51.339844 29.449219 50.644531 30.140625 C 50.539062 30.25 50.449219 30.375 50.371094 30.511719 L 36.476562 30.511719 C 36.476562 24.832031 36.476562 19.695312 36.476562 19.695312 C 36.476562 19.695312 36.121094 16.371094 32.707031 16.371094 C 31.527344 16.371094 29.074219 17.738281 29.074219 19.652344 C 29.074219 21.5625 29.074219 24.105469 29.074219 24.105469 L 28.527344 20.433594 L 25.746094 20.433594 C 25.746094 20.433594 24.207031 20.371094 24.207031 22.3125 C 24.207031 24.257812 24.257812 24.914062 24.257812 24.914062 L 21.058594 24.914062 C 21.058594 24.914062 19.480469 25.105469 19.480469 26.796875 L 19.480469 38.222656 C 19.476562 38.222656 19.527344 39.78125 21.140625 39.78125 Z M 21.140625 39.78125 " fill-opacity="1" fill-rule="nonzero"/></g><g clip-path="url(#id2)"><path stroke-linecap="butt" transform="matrix(0.75, 0, 0, 0.75, -15.415884, 53.297507)" fill="none" stroke-linejoin="miter" d="M 34.497223 -5.000842 L 28.158681 -5.000842 L 24.768056 20.999159 L 31.096181 20.999159 Z M 59.226391 6.004367 L 58.38785 10.999159 L 57.096183 20.999159 L 63.424308 20.999159 L 66.82535 -5.000842 L 57.398266 -5.000842 L 51.689933 9.999159 L 49.924307 -5.000842 L 40.497223 -5.000842 L 37.090973 20.999159 L 43.424307 20.999159 L 44.72639 10.999159 L 45.231599 6.004367 L 46.997224 20.999159 L 53.523266 20.999159 Z M 91.387852 6.004367 L 90.54931 10.999159 L 89.257644 20.999159 L 95.585769 20.999159 L 98.986811 -5.000842 L 89.559727 -5.000842 L 83.851393 9.999159 L 82.085768 -5.000842 L 72.658684 -5.000842 L 69.257642 20.999159 L 75.585768 20.999159 L 76.887851 10.999159 L 77.393059 6.004367 L 79.158685 20.999159 L 85.684727 20.999159 Z M 111.320145 -5.000842 L 104.981603 -5.000842 L 101.585769 20.999159 L 107.919103 20.999159 Z M 117.314937 -5.000842 L 113.913895 20.999159 L 120.247229 20.999159 L 121.611812 10.467909 L 129.945146 10.467909 L 130.679521 5.004367 L 122.346188 5.004367 L 122.950354 0.467908 L 132.950355 0.467908 L 133.648272 -5.000842 Z M 144.981606 -5.000842 L 138.643064 -5.000842 L 135.252438 20.999159 L 141.580564 20.999159 Z M 161.278482 0.467908 L 167.106607 0.467908 L 167.804524 -5.000842 L 149.814939 -5.000842 L 149.117023 0.467908 L 154.93994 0.467908 L 152.247231 20.999159 L 158.580565 20.999159 Z M 161.278482 0.467908 " stroke="#ff5757" stroke-width="0.958332" stroke-opacity="1" stroke-miterlimit="4"/></g></svg>